PathFileType	4	(X/Y/Z)	C:\Users\Basilio\Documents\Thesis Gigler\squatting_fais\c3dfiles\044\SLS_front_pre4\markers_experimental.trc
DataRate	CameraRate	NumFrames	NumMarkers	Units	OrigDataRate	OrigDataStartFrame	OrigNumFrames
200.000000	200.000000	4	60	mm	200.000000	808	1293
Frame#	Time	FHD			LBHD			RBHD			C7			T10			LSHO			LUUPA			LMUPA			LDUPA			LLEP			LMEP			LUL			LRFIN			RSHO			RUPA1			RMUPA			RDUPA			RLEP			RMEP			RUL			LASI			RASI			USACR			LSACR			RSACR			LTHI1			LTHI2			LTHI3			LTHI4			LLFC			LMFC			LTIB1			LTIB2			LTIB3			LTIB4			LLMAL			LMMAL			LHEE			LMT1			LMT2			LMT5			RTHI			RTHI2			RTHI3			RTHI4			RLFC			RMFC			RTIB1			RTIB2			RTIB3			RTIB4			RLMAL			RHEE			RMT1			RMT2			RMT5			RUFIN			CLAV			LRAD			RMMAL			
		X1	Y1	Z1	X2	Y2	Z2	X3	Y3	Z3	X4	Y4	Z4	X5	Y5	Z5	X6	Y6	Z6	X7	Y7	Z7	X8	Y8	Z8	X9	Y9	Z9	X10	Y10	Z10	X11	Y11	Z11	X12	Y12	Z12	X13	Y13	Z13	X14	Y14	Z14	X15	Y15	Z15	X16	Y16	Z16	X17	Y17	Z17	X18	Y18	Z18	X19	Y19	Z19	X20	Y20	Z20	X21	Y21	Z21	X22	Y22	Z22	X23	Y23	Z23	X24	Y24	Z24	X25	Y25	Z25	X26	Y26	Z26	X27	Y27	Z27	X28	Y28	Z28	X29	Y29	Z29	X30	Y30	Z30	X31	Y31	Z31	X32	Y32	Z32	X33	Y33	Z33	X34	Y34	Z34	X35	Y35	Z35	X36	Y36	Z36	X37	Y37	Z37	X38	Y38	Z38	X39	Y39	Z39	X40	Y40	Z40	X41	Y41	Z41	X42	Y42	Z42	X43	Y43	Z43	X44	Y44	Z44	X45	Y45	Z45	X46	Y46	Z46	X47	Y47	Z47	X48	Y48	Z48	X49	Y49	Z49	X50	Y50	Z50	X51	Y51	Z51	X52	Y52	Z52	X53	Y53	Z53	X54	Y54	Z54	X55	Y55	Z55	X56	Y56	Z56	X57	Y57	Z57	X58	Y58	Z58	X59	Y59	Z59	X60	Y60	Z60	

809	4.04	-205.138900756836	1696.743774414063	-1076.808715820313	-338.7067871093751	1654.622680664063	-1151.44970703125	-379.0386047363282	1642.9677734375	-990.732604980469	-398.3599243164064	1481.4931640625	-1067.356811523438	-467.408660888672	1196.955322265625	-1019.031982421875	-312.4181823730469	1479.39794921875	-1213.020385742188	-155.052001953125	1432.827880859375	-1312.509521484375	-125.6258773803711	1444.345581054688	-1272.961059570313	-86.1610794067383	1421.433227539063	-1314.73876953125	-28.55871772766114	1416.004638671875	-1305.154907226563	-44.99928283691407	1341.479125976563	-1283.411010742188	228.360580444336	1413.050170898438	-1192.619018554688	240.4183197021485	1436.416015625	-1093.413452148438	-305.6900634765626	1491.8271484375	-915.2056884765627	-152.791015625	1458.941528320313	-815.175231933594	-122.3701248168946	1467.795166015625	-854.644958496094	-83.50933837890626	1451.526000976563	-813.0206298828127	-22.07053184509278	1447.456665039063	-823.6639404296877	-32.34603118896485	1367.035888671875	-830.4124755859377	225.0704193115235	1431.730224609375	-958.019470214844	-347.6736450195313	974.5388793945315	-1106.001220703125	-332.4018859863282	979.3956298828127	-892.1994628906252	-501.0982055664064	1041.143920898438	-986.7224121093752	-514.2064208984376	1007.710021972656	-1009.671508789063	-507.7279663085939	1014.175598144531	-954.7584228515627	-367.6209106445313	744.9685058593751	-1178.067626953125	-300.0532531738282	694.6709594726564	-1188.72802734375	-259.5520629882813	718.7896118164064	-1186.312255859375	-294.4837951660157	635.4743652343751	-1172.556884765625	-210.5075683593751	505.5010375976564	-1161.14990234375	-188.0359649658203	512.2685546875001	-1042.450073242188	-209.4615936279297	340.7367858886719	-1062.072509765625	-254.5831909179688	294.2078857421876	-1120.285034179688	-220.3706359863282	287.9201049804688	-1086.557983398438	-254.881332397461	224.5905914306641	-1042.664916992188	-338.4898071289063	121.463737487793	-1068.588623046875	-313.5284423828126	142.6100616455078	-987.665466308594	-407.089080810547	111.1236267089844	-1011.03271484375	-200.6865692138672	65.20944976806642	-989.925476074219	-199.4948425292969	61.32153701782228	-1037.467651367188	-238.4647216796876	45.53332901000977	-1081.56689453125	-253.8806610107422	765.4539184570314	-796.6916503906252	-185.7600708007813	765.6821899414064	-799.680847167969	-167.4819488525391	791.7558593750002	-811.678405761719	-139.8976287841797	695.1609497070314	-814.1334228515627	-67.44007110595705	623.8150634765626	-818.4204711914065	-77.23366546630861	603.8441772460939	-936.2993164062502	21.44659042358399	522.4627075195314	-841.9346923828127	-15.53134918212891	435.367401123047	-782.6506347656252	23.39349365234375	441.950408935547	-805.1802978515627	48.34312820434572	395.5806274414064	-828.134460449219	42.16564941406251	230.9757232666016	-793.127136230469	7.763966083526613	160.5564880371094	-826.7791137695315	196.6388397216797	247.3783721923829	-874.542419433594	203.3184204101563	256.3442077636719	-838.7415771484377	184.9646759033203	228.697738647461	-780.2069091796877	235.1208648681641	1411.213012695313	-1072.280517578125	-264.8747558593751	1425.202514648438	-1068.060546875	211.9417572021485	1368.878051757813	-1140.486083984375	51.90707778930665	235.2789916992188	-878.8325805664065	
810	4.045	-205.4423828125001	1698.42041015625	-1076.768920898438	-339.9904479980469	1655.430053710938	-1151.352783203125	-378.9200744628907	1644.054565429688	-990.7906494140627	-398.2728881835939	1483.05126953125	-1067.175048828125	-467.3066406250001	1198.454223632813	-1018.837341308594	-312.2668762207032	1480.893432617188	-1212.853515625	-155.2174530029297	1433.577270507813	-1312.278198242188	-125.711669921875	1445.827392578125	-1272.786254882813	-86.34990692138673	1422.775268554688	-1314.591674804688	-28.09128761291505	1416.923706054688	-1305.150390625	-45.24188995361329	1343.060913085938	-1283.245361328125	227.6265563964844	1414.462158203125	-1192.50048828125	240.5089569091797	1437.231201171875	-1093.43017578125	-305.7150573730469	1493.361083984375	-915.1050415039065	-152.7358856201172	1460.055053710938	-814.8676757812502	-122.207878112793	1469.377685546875	-854.5588989257815	-83.42353820800783	1453.018920898438	-812.9353637695315	-22.04125404357911	1449.035400390625	-823.6590576171877	-32.16371154785157	1368.591796875	-830.3870849609377	224.9787902832032	1433.206298828125	-958.1695556640627	-347.7154235839844	975.7199707031252	-1105.81494140625	-331.9235839843751	980.7567138671877	-892.1384887695315	-500.8831481933595	1042.506469726563	-986.4568481445315	-513.9439086914064	1009.318237304688	-1009.430419921875	-507.7204589843751	1015.6318359375	-954.3421020507815	-368.1873474121094	745.9339599609376	-1177.716430664063	-300.9185180664063	695.2329101562501	-1188.298461914063	-259.9949951171876	719.5515136718751	-1186.110107421875	-295.4447937011719	636.2816772460939	-1172.322509765625	-212.2187652587891	506.3462524414064	-1160.7646484375	-189.3105621337891	512.9967041015626	-1042.761352539063	-210.0225677490235	341.0408020019532	-1062.172485351563	-255.4797821044922	294.5666503906251	-1120.127075195313	-220.6119384765626	288.0849609375001	-1086.661010742188	-255.5240325927735	224.9323730468751	-1042.509399414063	-338.6532592773438	121.4050216674805	-1068.304931640625	-313.6894226074219	142.5630950927735	-987.4747314453127	-407.0285644531251	111.0439605712891	-1010.913330078125	-200.6531829833985	65.19927978515626	-989.8906250000002	-199.5013885498047	61.34177780151369	-1037.456665039063	-238.3255920410157	45.48667144775391	-1081.518920898438	-254.1615295410157	766.3571777343751	-796.5066528320315	-185.6915130615235	765.5761718750001	-799.195251464844	-167.6711883544922	792.0584716796877	-811.5876464843752	-140.6489868164063	695.3860473632814	-813.9124755859377	-68.08581542968751	623.5225219726564	-818.2154541015627	-78.44095611572267	604.0343017578126	-936.1557617187502	19.88323402404786	521.9455566406251	-841.9240722656252	-17.45720100402832	435.1778259277345	-782.2607421875002	21.75925445556641	441.4895324707032	-805.0220947265627	46.43171310424805	394.9491577148439	-828.1072998046877	39.42582321166993	230.7625732421876	-793.263854980469	4.521365642547608	160.4348907470703	-826.597839355469	193.786605834961	245.6046142578126	-874.3193969726565	200.7858428955079	254.3541259765626	-837.9860839843752	181.923080444336	227.3729400634766	-780.0906372070315	234.8113555908204	1412.37060546875	-1072.229125976563	-264.9008178710938	1426.577880859375	-1067.934814453125	211.7886505126954	1370.312866210938	-1140.480834960938	48.79980087280275	234.8609924316407	-878.3182373046877	
811	4.05	-205.4416503906251	1700.10888671875	-1076.850463867188	-340.0863647460938	1657.065185546875	-1151.400024414063	-379.2434692382813	1645.926635742188	-990.6784667968752	-398.2512512207032	1484.513427734375	-1067.181396484375	-467.0319824218751	1199.909545898438	-1018.681213378906	-312.4216613769532	1482.292358398438	-1212.84033203125	-155.228759765625	1435.14306640625	-1312.328857421875	-125.8000793457032	1446.974243164063	-1272.824829101563	-86.34497833251955	1423.892944335938	-1314.595458984375	-28.06949996948243	1418.130981445313	-1305.153198242188	-45.14059448242188	1344.1142578125	-1283.120361328125	227.6834106445313	1415.599975585938	-1192.587646484375	240.2044525146485	1438.8349609375	-1093.340087890625	-305.4248962402344	1494.80419921875	-915.0113525390627	-152.738998413086	1462.024169921875	-815.1755371093752	-122.1798858642578	1470.65185546875	-854.443786621094	-83.38058471679689	1454.554809570313	-812.770202636719	-22.05909538269043	1450.49560546875	-823.4654541015627	-32.14307022094727	1370.092163085938	-830.3589477539065	225.0756225585938	1434.457763671875	-958.2153930664065	-347.3393249511719	977.248962402344	-1105.72607421875	-331.6555480957032	982.1348876953127	-891.9819335937502	-500.8067016601564	1044.156127929688	-986.2314453125002	-513.5745849609376	1010.434509277344	-1009.206481933594	-507.1852111816407	1017.093505859375	-954.0859985351565	-368.9024658203126	747.1957397460939	-1177.299194335938	-301.6521606445313	696.1528320312501	-1187.961791992188	-260.6795654296876	720.5472412109376	-1185.849975585938	-296.3630371093751	637.0584716796876	-1171.903198242188	-213.5391845703126	506.717742919922	-1160.524047851563	-190.3587036132813	513.1933593750001	-1042.059692382813	-210.973861694336	341.3855590820313	-1061.84814453125	-256.4996948242188	294.5114440917969	-1120.003295898438	-221.4927825927735	289.2996520996094	-1086.8203125	-255.9149322509766	225.2925567626954	-1042.4951171875	-338.7783203125001	121.4832000732422	-1068.18798828125	-313.7725524902344	142.56787109375	-987.3504028320315	-407.0628967285157	111.0089950561524	-1010.824279785156	-200.6621551513672	65.15781402587892	-989.889343261719	-199.5052490234376	61.34872817993165	-1037.461059570313	-238.3322448730469	45.46743774414063	-1081.5048828125	-254.4618072509766	767.3923339843751	-796.4320068359377	-186.0726470947266	766.2891235351564	-799.4443359375002	-167.8436584472657	792.3599853515627	-811.3413085937502	-141.037582397461	695.7350463867189	-813.832214355469	-68.93030548095705	623.6428222656251	-818.275085449219	-79.79062652587892	603.9505004882814	-935.9890747070315	18.7044792175293	521.2969970703126	-841.8903808593752	-19.45794677734375	435.3236389160157	-782.1773071289065	19.92292594909668	440.9994201660157	-804.917663574219	44.03538894653321	394.5473632812501	-827.8448486328127	36.51559829711915	230.0697784423829	-792.505554199219	1.11922287940979	160.4052886962891	-826.0142211914065	189.8662567138672	244.6707153320313	-874.0968017578127	197.8445129394532	253.9289703369141	-838.4274902343752	179.0487518310547	226.0891876220704	-779.9063110351565	234.9638061523438	1413.578979492188	-1072.33837890625	-264.8176879882813	1428.304931640625	-1067.863159179688	211.7179870605469	1371.351196289063	-1140.4599609375	45.76962280273438	234.1224975585938	-878.0750122070315	
812	4.055	-205.2325592041016	1701.488403320313	-1076.987060546875	-339.0957031250001	1658.9208984375	-1151.258666992188	-379.0018920898438	1647.581665039063	-990.660339355469	-398.3514099121095	1486.14013671875	-1067.117309570313	-467.0295410156251	1201.255004882813	-1018.371032714844	-312.2322998046876	1483.93359375	-1212.673706054688	-155.3664855957032	1436.26123046875	-1312.175415039063	-125.7968215942383	1448.489379882813	-1272.766357421875	-86.48530578613283	1425.380615234375	-1314.51123046875	-28.68094444274903	1419.767333984375	-1304.982788085938	-45.59343338012696	1345.6259765625	-1282.92529296875	228.406723022461	1416.341552734375	-1192.54150390625	240.4476928710938	1440.317016601563	-1093.609130859375	-305.2715759277344	1496.341796875	-914.9123535156252	-152.4574584960938	1463.255615234375	-814.5776367187502	-122.0076370239258	1472.210205078125	-854.3466796875002	-83.32722473144533	1456.116577148438	-812.7463378906252	-21.85705757141114	1452.00341796875	-823.429626464844	-32.22479248046876	1371.800048828125	-830.1788330078127	224.9238739013672	1436.280029296875	-958.4079589843752	-347.3374023437501	978.6348266601565	-1105.489013671875	-331.3906860351563	983.4903564453127	-891.8250732421877	-501.3953552246095	1045.852172851563	-985.500915527344	-513.4513549804689	1012.2919921875	-1008.834899902344	-506.7335815429689	1018.772583007813	-953.8733520507815	-369.3739318847657	748.1792602539064	-1177.01318359375	-302.3100585937501	697.0704345703126	-1187.627807617188	-261.5240783691407	721.2574462890626	-1185.581665039063	-297.3687133789063	637.8781127929689	-1171.516235351563	-214.7314453125001	507.1088256835939	-1160.296630859375	-191.6070098876953	513.7051391601564	-1041.84521484375	-211.7908477783204	341.8196411132813	-1061.802490234375	-257.2077636718751	294.8295898437501	-1119.910522460938	-222.8462829589844	290.0768432617188	-1086.7861328125	-256.0434265136719	225.3858947753907	-1042.534790039063	-338.8556823730469	121.5359268188477	-1068.111083984375	-313.8469543457032	142.4651947021485	-987.253112792969	-407.0117492675782	111.0955429077149	-1010.843017578125	-200.6858978271485	65.26679992675783	-989.9182739257815	-199.4904327392579	61.3873634338379	-1037.40380859375	-238.4459381103516	45.55258941650391	-1081.432250976563	-254.3903503417969	768.3062133789065	-796.229675292969	-186.280014038086	767.1206054687501	-799.3201904296877	-167.8537139892578	792.9031982421877	-811.3218383789065	-141.7380065917969	696.1623535156251	-813.6909179687502	-69.73094177246095	623.6425170898439	-818.1401977539065	-80.88112640380861	603.3928222656251	-935.9902343750002	17.01572418212891	521.0386962890626	-841.926208496094	-21.06399536132813	435.0475463867189	-781.8289794921877	17.99748992919922	440.5657348632814	-804.7175903320315	42.09405517578126	393.8110656738282	-827.7714843750002	33.28152465820313	229.9962005615235	-792.1767578125002	-2.755724430084229	160.0732116699219	-824.8583984375002	186.9738159179688	243.3523559570313	-873.926452636719	195.066390991211	251.2657775878907	-837.9645996093752	176.1180572509766	224.4247741699219	-779.8259277343752	234.8701171875001	1414.811157226563	-1072.236938476563	-264.9277648925782	1429.5791015625	-1067.764282226563	211.5759429931641	1372.828002929688	-1140.457275390625	42.68974685668946	233.4263763427735	-877.7627563476565	
